<?xml version="1.0" encoding="UTF-8"?>
<svg width="40px" height="40px" viewBox="0 0 40 40" version="1.1" xmlns="http://www.w3.org/2000/svg" xmlns:xlink="http://www.w3.org/1999/xlink">
    <title>编组 12@2x</title>
    <g id="页面-1" stroke="none" stroke-width="1" fill="none" fill-rule="evenodd">
        <g id="兑换首页-web" transform="translate(-1253.000000, -738.000000)">
            <g id="编组-26" transform="translate(-4.000000, 699.000000)">
                <g id="编组-15" transform="translate(1017.000000, 39.000000)">
                    <g id="编组-12" transform="translate(240.000000, 0.000000)">
                        <rect id="矩形" fill="#41426C" fill-rule="nonzero" x="0" y="0" width="40" height="40" rx="4.8"></rect>
                        <path d="M29.786988,17.1317122 C29.786988,20.5139916 28.4915663,23.7871652 26.2245783,26.2965983 C23.7956627,29.024243 20.2872289,30.551724 16.6708434,30.3880653 C14.1339759,30.4426182 11.7050602,29.6788777 9.6,28.3150554 C9.97783133,28.3696083 10.3556627,28.3696083 10.733494,28.3696083 C12.8385542,28.3696083 14.8356627,27.6604207 16.5089157,26.3511512 C15.5373494,26.2965983 14.619759,25.969281 13.8101205,25.423752 C13.0544578,24.8782231 12.4607229,24.0599297 12.1368675,23.1325305 C12.406747,23.1870834 12.7306024,23.2416363 13.0004819,23.2416363 C13.4322892,23.2416363 13.8640964,23.1870834 14.2419277,23.0779776 C13.2163855,22.9143189 12.2448193,22.3142371 11.5971084,21.4959437 C10.8954217,20.6776503 10.5175904,19.6411453 10.5175904,18.5500875 L10.5175904,18.4409817 C11.1113253,18.8228519 11.866988,19.0410635 12.5686747,19.0956164 C11.2719406,18.2269006 10.5154885,16.7391503 10.5715663,15.1678081 C10.5715663,14.3495147 10.733494,13.5857742 11.1653012,12.8765866 C13.4862651,15.8224428 16.9407229,17.5681354 20.6650602,17.6772412 C20.6110843,17.3499238 20.5571084,17.0226065 20.5571084,16.6407362 C20.5031325,14.0767502 22.5542169,12.0037403 25.0371084,12.0037403 L25.1450602,12.0037403 C26.4404819,11.9491874 27.6279518,12.4947163 28.4915663,13.4221155 C29.5171084,13.2039039 30.4886747,12.8220337 31.4062651,12.2765047 C31.0824096,13.3675626 30.3807229,14.2404089 29.4091566,14.8404907 C30.326747,14.7313849 31.1903614,14.5131734 32,14.185856 C31.460241,15.0587023 30.7045783,15.8769957 29.786988,16.5316304 L29.786988,17.1317122 Z" id="路径" fill="#161638"></path>
                    </g>
                </g>
            </g>
        </g>
    </g>
</svg>