<?xml version="1.0" encoding="UTF-8"?>
<svg width="40px" height="40px" viewBox="0 0 40 40" version="1.1" xmlns="http://www.w3.org/2000/svg" xmlns:xlink="http://www.w3.org/1999/xlink">
    <title>编组 12备份 2@2x</title>
    <g id="页面-1" stroke="none" stroke-width="1" fill="none" fill-rule="evenodd">
        <g id="兑换首页-web" transform="translate(-1073.000000, -738.000000)">
            <g id="编组-26" transform="translate(-4.000000, 699.000000)">
                <g id="编组-15" transform="translate(1017.000000, 39.000000)">
                    <g id="编组-12备份-2" transform="translate(60.000000, 0.000000)">
                        <rect id="矩形" fill="#41426C" fill-rule="nonzero" x="0" y="0" width="40" height="40" rx="4.8"></rect>
                        <path d="M31.2,11.5757221 L29.4139535,13.2701549 C29.2576744,13.3880285 29.1832558,13.579573 29.2130233,13.7637505 L29.2130233,26.2362495 C29.1832558,26.4277941 29.2576744,26.6193386 29.4139535,26.7298451 L31.1627907,28.4242779 L31.1627907,28.8 L22.3813953,28.8 L22.3813953,28.4390121 L24.1897674,26.7003767 C24.3683721,26.5235663 24.3683721,26.4719967 24.3683721,26.2067811 L24.3683721,16.1212223 L19.3376744,28.7631645 L18.6604651,28.7631645 L12.8037209,16.1212223 L12.8037209,24.5933864 C12.7516279,24.9470071 12.8781395,25.307995 13.1311628,25.5658434 L15.4827907,28.3874424 L15.4827907,28.7631645 L8.8,28.7631645 L8.8,28.3874424 L11.1516279,25.5658434 C11.4046512,25.307995 11.5162791,24.9470071 11.4567442,24.5933864 L11.4567442,14.7951444 C11.4865116,14.5225617 11.3823256,14.2573462 11.1739535,14.0731687 L9.0827907,11.5757221 L9.0827907,11.2 L15.5795349,11.2 L20.5953488,22.1033068 L25.0083721,11.2073671 L31.2,11.2073671 L31.2,11.5757221 Z" id="路径" fill="#161638"></path>
                    </g>
                </g>
            </g>
        </g>
    </g>
</svg>