<?xml version="1.0" encoding="UTF-8"?>
<svg width="40px" height="40px" viewBox="0 0 40 40" version="1.1" xmlns="http://www.w3.org/2000/svg" xmlns:xlink="http://www.w3.org/1999/xlink">
    <title>编组 12备份 3@2x</title>
    <g id="页面-1" stroke="none" stroke-width="1" fill="none" fill-rule="evenodd">
        <g id="兑换首页-web" transform="translate(-1133.000000, -738.000000)">
            <g id="编组-26" transform="translate(-4.000000, 699.000000)">
                <g id="编组-15" transform="translate(1017.000000, 39.000000)">
                    <g id="编组-12备份-3" transform="translate(120.000000, 0.000000)">
                        <rect id="矩形" fill="#41426C" fill-rule="nonzero" x="0" y="0" width="40" height="40" rx="4.8"></rect>
                        <path d="M20,8.8 C13.3725736,8.8 8,14.1221904 8,20.6874659 C8,25.9426637 11.4414527,30.3939502 16.2053851,31.9719983 C16.8065122,32.0836526 17.0244208,31.7114715 17.0244208,31.3988393 C17.0244208,31.1159817 17.0169067,30.3716194 17.0093926,29.3741739 C13.6731371,30.0962053 12.9668128,27.7812386 12.9668128,27.7812386 C12.4182843,26.4041683 11.636819,26.0394308 11.636819,26.0394308 C10.5397621,25.3099557 11.7119599,25.324843 11.7119599,25.324843 C12.9142142,25.4067228 13.5529117,26.5530408 13.5529117,26.5530408 C14.6199123,28.3692848 16.363181,27.8482312 17.0469631,27.5430426 C17.1596744,26.7763495 17.467752,26.2478522 17.805886,25.9501073 C15.1383845,25.6523624 12.3356293,24.6325861 12.3356293,20.0770888 C12.3356293,18.7818984 12.8015028,17.7174603 13.5679399,16.8837745 C13.4477145,16.5860296 13.0344396,15.3727191 13.6881653,13.735122 C13.6881653,13.735122 14.6950532,13.4150462 16.9868503,14.9558762 C17.9411396,14.6953494 18.9705698,14.5613642 19.9924859,14.5539206 C21.014402,14.5613642 22.0363181,14.6879058 22.9981215,14.9558762 C25.2899186,13.4150462 26.2968065,13.735122 26.2968065,13.735122 C26.9505322,15.3727191 26.5372574,16.578586 26.4170319,16.8837745 C27.183469,17.7174603 27.6493425,18.7744548 27.6493425,20.0770888 C27.6493425,24.6474733 24.8465874,25.6523624 22.1715717,25.9426637 C22.5998748,26.3074012 22.9830933,27.0368763 22.9830933,28.1459761 C22.9830933,29.7389114 22.9680651,31.0192146 22.9680651,31.406283 C22.9680651,31.7263587 23.1859737,32.0910963 23.7946149,31.9794419 C28.5660614,30.4013938 32,25.9426637 32,20.6949095 C32,14.1221904 26.6274264,8.8 20,8.8 Z" id="路径" fill="#161638"></path>
                    </g>
                </g>
            </g>
        </g>
    </g>
</svg>