<?xml version="1.0" encoding="UTF-8"?>
<svg width="40px" height="40px" viewBox="0 0 40 40" version="1.1" xmlns="http://www.w3.org/2000/svg" xmlns:xlink="http://www.w3.org/1999/xlink">
    <title>编组 12备份@2x</title>
    <g id="页面-1" stroke="none" stroke-width="1" fill="none" fill-rule="evenodd">
        <g id="兑换首页-web" transform="translate(-1013.000000, -738.000000)">
            <g id="编组-26" transform="translate(-4.000000, 699.000000)">
                <g id="编组-12备份" transform="translate(1017.000000, 39.000000)">
                    <rect id="矩形" fill="#41426C" fill-rule="nonzero" x="0" y="0" width="40" height="40" rx="4.8"></rect>
                    <path d="M26.9581429,30.0415198 L30.3366351,13.7482845 C30.6354706,12.3112425 29.83022,11.7499831 28.9086918,12.1020612 L9.03946693,19.9311983 C7.68217337,20.4699247 7.70572328,21.2479234 8.80980931,21.6000015 L13.8930482,23.2221427 L25.6965208,15.6277243 C26.2485638,15.2515171 26.7564508,15.4637028 26.3412916,15.83991 L16.7931369,24.6545841 L16.4251235,30.0174377 C16.8286372,30.0186794 17.2096497,29.8278492 17.4555701,29.5013381 L19.9390737,27.0561323 L25.0914905,30.9353288 C26.0350968,31.4755574 26.7019916,31.1941766 26.9537273,30.0415198 L26.9581429,30.0415198 L26.9581429,30.0415198 Z" id="路径-3" fill="#161638"></path>
                </g>
            </g>
        </g>
    </g>
</svg>