<?xml version="1.0" encoding="UTF-8"?>
<svg width="40px" height="40px" viewBox="0 0 40 40" version="1.1" xmlns="http://www.w3.org/2000/svg" xmlns:xlink="http://www.w3.org/1999/xlink">
    <title>编组 14@2x</title>
    <g id="页面-1" stroke="none" stroke-width="1" fill="none" fill-rule="evenodd">
        <g id="兑换首页-web" transform="translate(-1193.000000, -738.000000)">
            <g id="编组-26" transform="translate(-4.000000, 699.000000)">
                <g id="编组-15" transform="translate(1017.000000, 39.000000)">
                    <g id="编组-14" transform="translate(180.000000, 0.000000)">
                        <rect id="矩形备份" fill="#41426C" fill-rule="nonzero" x="0" y="0" width="40" height="40" rx="4.8"></rect>
                        <polygon id="路径" fill="#161638" points="15.3791667 31.0222222 10.7680556 31.0222222 10.7680556 16.175 15.3861111 16.175 15.3861111 31.0222222"></polygon>
                        <path d="M13.0736111,14.1472222 C11.5944444,14.1472222 10.4,12.9458333 10.4,11.4736111 C10.4,10.0013889 11.5944444,8.8 13.0736111,8.8 C14.5458333,8.8 15.7472222,10.0013889 15.7472222,11.4736111 C15.7472222,12.9527778 14.5527778,14.1472222 13.0736111,14.1472222 Z" id="路径" fill="#161638"></path>
                        <path d="M32.6638889,31.0222222 L28.0527778,31.0222222 L28.0527778,23.8 C28.0527778,22.0777778 28.0180556,19.8625 25.6569444,19.8625 C23.2541667,19.8625 22.8861111,21.7375 22.8861111,23.675 L22.8861111,31.0222222 L18.275,31.0222222 L18.275,16.175 L22.6986111,16.175 L22.6986111,18.2027778 L22.7611111,18.2027778 C23.3791667,17.0361111 24.8861111,15.8069444 27.1291667,15.8069444 C31.7958333,15.8069444 32.6638889,18.8833333 32.6638889,22.8833333 L32.6638889,31.0222222 L32.6638889,31.0222222 Z" id="路径" fill="#161638"></path>
                    </g>
                </g>
            </g>
        </g>
    </g>
</svg>